<svg version="1.0" xmlns="http://www.w3.org/2000/svg" viewBox="0 0 512.000000 512.000000"
 preserveAspectRatio="xMidYMid meet">

<g transform="translate(0.000000,512.000000) scale(0.100000,-0.100000)"
fill="#000000" stroke="none">
<path d="M480 5104 c-80 -17 -189 -70 -253 -123 -224 -186 -288 -487 -161
-750 36 -74 62 -100 833 -874 l796 -797 -796 -798 c-772 -773 -797 -799 -833
-873 -117 -243 -72 -518 116 -708 186 -187 465 -232 707 -115 74 36 100 61
874 833 l797 796 798 -796 c773 -772 799 -797 873 -833 243 -117 518 -72 708
116 187 186 232 465 115 707 -36 74 -61 100 -833 873 l-796 798 796 797 c772
774 797 800 833 874 117 242 72 521 -115 707 -190 188 -465 233 -708 116 -74
-36 -100 -61 -873 -833 l-798 -796 -797 796 c-774 771 -800 797 -874 833 -131
63 -270 80 -409 50z"/>
</g>
</svg>
