<svg version="1.0" xmlns="http://www.w3.org/2000/svg" viewBox="0 0 428.000000 428.000000"
 preserveAspectRatio="xMidYMid meet">

<g transform="translate(0.000000,428.000000) scale(0.100000,-0.100000)"
fill="#000000" stroke="none">
<path d="M370 4251 c-169 -55 -295 -182 -344 -350 -23 -80 -24 -1126 -1 -1216
22 -84 61 -151 131 -222 68 -70 170 -125 263 -143 32 -6 264 -10 575 -10 574
0 596 2 707 61 74 40 168 134 208 208 59 111 61 133 61 707 0 311 -4 543 -10
575 -35 183 -187 347 -365 394 -50 13 -147 15 -615 14 -504 0 -560 -2 -610
-18z"/>
<path d="M2681 4254 c-81 -21 -148 -62 -218 -130 -70 -68 -125 -170 -143 -263
-6 -32 -10 -264 -10 -575 0 -574 2 -596 61 -707 66 -123 208 -229 347 -258 69
-14 1068 -15 1143 -1 183 35 347 187 394 365 23 90 22 1136 -1 1216 -51 171
-183 303 -353 353 -77 23 -1136 23 -1220 0z"/>
<path d="M411 1959 c-85 -16 -189 -75 -255 -142 -70 -71 -109 -138 -131 -222
-23 -90 -22 -1136 1 -1216 27 -90 63 -150 133 -220 70 -70 130 -106 220 -133
80 -23 1126 -24 1216 -1 84 22 151 61 222 131 70 68 125 170 143 263 6 32 10
264 10 575 0 574 -2 596 -62 707 -40 76 -131 167 -205 207 -114 60 -133 62
-718 61 -291 -1 -550 -5 -574 -10z"/>
<path d="M2703 1956 c-183 -45 -335 -197 -378 -377 -12 -53 -15 -156 -15 -585
0 -311 4 -543 10 -575 35 -183 187 -347 365 -394 90 -23 1136 -22 1216 1 128
38 257 141 313 252 56 111 56 110 56 707 0 600 -1 614 -58 719 -44 81 -138
170 -223 211 -41 19 -98 39 -128 45 -82 15 -1092 12 -1158 -4z"/>
</g>
</svg>
