<svg version="1.0" xmlns="http://www.w3.org/2000/svg" viewBox="0 0 512.000000 512.000000"
 preserveAspectRatio="xMidYMid meet">

<g transform="translate(0.000000,512.000000) scale(0.100000,-0.100000)"
fill="#000000" stroke="none">
<path d="M2305 5109 c-668 -64 -1282 -386 -1720 -904 -37 -44 -107 -140 -156
-213 -239 -361 -378 -757 -419 -1197 -15 -165 -13 -197 13 -235 45 -67 53 -69
374 -116 349 -51 387 -53 434 -21 50 33 69 79 69 164 0 102 26 291 55 402 166
626 684 1098 1325 1208 117 20 404 23 510 5 93 -16 260 -58 320 -81 25 -10 54
-21 64 -25 17 -6 -5 -31 -136 -164 -85 -86 -161 -168 -168 -181 -32 -62 -4
-158 56 -193 48 -28 1553 -242 1605 -228 43 12 94 65 104 108 6 30 -195 1480
-216 1556 -22 80 -105 127 -184 105 -32 -9 -74 -45 -206 -175 -91 -90 -168
-164 -172 -164 -4 0 -40 18 -80 41 -195 110 -483 217 -710 264 -246 50 -527
66 -762 44z"/>
<path d="M4304 2691 c-63 -39 -77 -72 -86 -210 -29 -441 -188 -800 -483 -1096
-226 -225 -522 -386 -825 -449 -294 -60 -630 -36 -900 64 -30 12 -61 23 -69
26 -10 3 40 60 146 167 133 134 163 168 168 199 13 70 -16 133 -76 164 -18 9
-336 58 -799 125 l-770 110 -45 -20 c-56 -25 -85 -70 -85 -131 0 -77 210
-1523 227 -1557 17 -36 61 -67 108 -77 63 -13 92 7 271 185 l171 171 124 -65
c898 -475 1997 -371 2789 262 115 92 293 268 380 375 99 122 221 312 293 453
162 319 266 719 271 1035 1 93 -2 110 -20 134 -45 60 -53 63 -379 110 -170 24
-324 44 -344 44 -20 0 -50 -9 -67 -19z"/>
</g>
</svg>
