<svg version="1.0" xmlns="http://www.w3.org/2000/svg" viewBox="0 0 25.000000 25.000000"
 preserveAspectRatio="xMidYMid meet">

<g transform="translate(0.000000,25.000000) scale(0.100000,-0.100000)"
fill="#000000" stroke="none">
<path d="M100 220 c0 -5 -8 -10 -18 -10 -23 0 -42 -19 -42 -42 0 -10 -4 -18
-10 -18 -5 0 -10 -11 -10 -25 0 -14 5 -25 10 -25 6 0 10 -8 10 -18 0 -23 19
-42 42 -42 10 0 18 -4 18 -10 0 -5 11 -10 25 -10 14 0 25 5 25 10 0 6 8 10 18
10 23 0 42 19 42 42 0 10 5 18 10 18 6 0 10 11 10 25 0 14 -4 25 -10 25 -5 0
-10 8 -10 18 0 23 -19 42 -42 42 -10 0 -18 5 -18 10 0 6 -11 10 -25 10 -14 0
-25 -4 -25 -10z m54 -82 c8 -14 7 -21 -6 -34 -30 -30 -75 9 -48 42 16 18 39
15 54 -8z"/>
</g>
</svg>
