<svg version="1.0" xmlns="http://www.w3.org/2000/svg" viewBox="0 0 512.000000 512.000000"
 preserveAspectRatio="xMidYMid meet">

<g transform="translate(0.000000,512.000000) scale(0.100000,-0.100000)"
fill="#000000" stroke="none">
<path d="M3060 4930 c-35 -13 -313 -192 -762 -492 l-708 -471 0 -1407 0 -1407
708 -471 c479 -320 725 -478 764 -492 38 -13 83 -20 132 -20 64 0 83 4 137 33
70 36 121 93 154 174 20 47 20 81 23 2163 2 2088 2 2116 -18 2180 -28 91 -81
157 -159 197 -55 29 -72 33 -139 33 -51 -1 -96 -8 -132 -20z"/>
<path d="M407 3815 c-198 -54 -359 -230 -396 -429 -15 -81 -15 -1569 0 -1652
6 -32 28 -95 49 -139 65 -134 181 -235 323 -280 78 -25 79 -25 493 -25 l414 0
0 1270 0 1270 -417 -1 c-313 -1 -430 -4 -466 -14z"/>
<path d="M3925 3131 c-45 -20 -70 -60 -70 -112 l0 -49 165 -165 165 -165 -165
-165 -165 -165 0 -50 c0 -43 5 -54 33 -82 28 -28 39 -33 82 -33 l50 0 165 165
165 165 165 -165 165 -165 50 0 c43 0 54 5 82 33 28 28 33 39 33 82 l0 50
-165 165 -165 165 165 165 165 165 0 50 c0 43 -5 54 -33 82 -28 28 -39 33 -82
33 l-50 0 -165 -165 -165 -165 -163 163 c-148 147 -168 164 -203 168 -21 2
-48 0 -59 -5z"/>
</g>
</svg>
