<svg version="1.0" xmlns="http://www.w3.org/2000/svg" viewBox="0 0 512.000000 512.000000"
 preserveAspectRatio="xMidYMid meet">

<g transform="translate(0.000000,512.000000) scale(0.100000,-0.100000)"
fill="#000000" stroke="none">
<path d="M3060 4930 c-35 -13 -313 -192 -762 -492 l-708 -471 0 -1407 0 -1407
708 -471 c479 -320 725 -478 764 -492 38 -13 83 -20 132 -20 64 0 83 4 137 33
70 36 121 93 154 174 20 47 20 81 23 2163 2 2088 2 2116 -18 2180 -28 91 -81
157 -159 197 -55 29 -72 33 -139 33 -51 -1 -96 -8 -132 -20z"/>
<path d="M407 3815 c-198 -54 -359 -230 -396 -429 -15 -81 -15 -1569 0 -1652
6 -32 28 -95 49 -139 65 -134 181 -235 323 -280 78 -25 79 -25 493 -25 l414 0
0 1270 0 1270 -417 -1 c-313 -1 -430 -4 -466 -14z"/>
<path d="M3945 3660 c-11 -4 -33 -22 -49 -38 -38 -41 -48 -119 -21 -169 30
-56 72 -74 189 -83 114 -9 252 -49 334 -97 211 -121 356 -318 403 -547 99
-482 -243 -936 -737 -976 -117 -9 -159 -27 -189 -83 -13 -25 -17 -47 -13 -86
4 -44 11 -59 42 -89 34 -35 40 -37 111 -40 212 -11 475 77 666 224 215 165
361 401 421 679 16 77 16 332 0 410 -98 460 -443 804 -892 889 -87 17 -232 20
-265 6z"/>
<path d="M3940 3012 c-107 -53 -107 -207 0 -263 19 -11 50 -19 68 -19 73 0
140 -53 163 -130 30 -98 -58 -210 -163 -210 -115 0 -188 -136 -125 -231 44
-67 124 -84 242 -54 227 60 382 292 346 521 -22 141 -119 282 -237 346 -102
55 -229 73 -294 40z"/>
</g>
</svg>
